<?xml version="1.0" standalone="no"?>
<!DOCTYPE svg PUBLIC "-//W3C//DTD SVG 20010904//EN"
 "http://www.w3.org/TR/2001/REC-SVG-20010904/DTD/svg10.dtd">
<svg version="1.0" xmlns="http://www.w3.org/2000/svg"
 width="505.000000pt" height="211.000000pt" viewBox="0 0 505.000000 211.000000"
 preserveAspectRatio="xMidYMid meet">
<metadata>
Created by potrace 1.15, written by Peter Selinger 2001-2017
</metadata>
<g transform="translate(0.000000,211.000000) scale(0.100000,-0.100000)"
fill="rgb(218, 68, 61)" stroke="none">
<path d="M1212 2008 c-8 -8 -12 -46 -12 -105 0 -91 1 -94 26 -103 14 -6 58
-10 99 -10 41 0 85 4 99 10 25 9 26 12 26 103 0 59 -4 97 -12 105 -8 8 -48 12
-113 12 -65 0 -105 -4 -113 -12z"/>
<path d="M2642 2008 c-8 -8 -12 -46 -12 -105 0 -114 3 -116 130 -111 115 4
120 8 120 114 0 111 -4 114 -129 114 -62 0 -101 -4 -109 -12z"/>
<path d="M440 1676 c-161 -46 -265 -161 -308 -341 -23 -96 -29 -691 -8 -815
29 -171 101 -272 239 -339 98 -48 189 -61 412 -61 l195 0 0 115 0 115 -137 0
c-188 1 -274 13 -351 51 -95 47 -116 83 -120 218 l-4 106 44 -41 c56 -53 83
-69 148 -88 143 -43 316 7 418 119 94 103 132 224 132 418 -1 143 -15 214 -65
314 -54 110 -154 189 -284 225 -77 21 -241 23 -311 4z m243 -237 c103 -28 167
-145 167 -304 0 -139 -44 -244 -122 -288 -125 -72 -269 -29 -333 98 -29 58
-30 65 -30 195 0 127 2 138 27 190 28 56 70 94 124 110 41 12 122 12 167 -1z"/>
<path d="M3298 1671 c-118 -38 -208 -112 -260 -215 -61 -120 -61 -121 -65
-503 l-5 -353 126 0 125 0 3 323 c3 284 5 327 21 362 41 91 106 129 213 123
63 -3 78 -7 111 -34 21 -16 49 -52 63 -80 25 -49 25 -50 28 -371 l3 -323 124
0 c121 0 124 1 127 23 2 12 1 171 -2 352 -6 323 -6 331 -31 396 -64 166 -151
254 -298 299 -81 26 -205 26 -283 1z"/>
<path d="M4344 1671 c-227 -65 -344 -249 -344 -541 0 -186 44 -321 136 -420
101 -108 274 -156 414 -114 65 19 92 35 148 88 l44 41 -4 -106 c-3 -95 -6
-110 -30 -146 -36 -55 -127 -100 -228 -113 -41 -5 -137 -10 -213 -10 l-138 0
3 -112 3 -113 230 1 c220 1 233 2 303 27 129 45 215 115 266 214 47 94 58 214
53 579 -5 361 -11 407 -66 519 -53 107 -143 178 -266 211 -71 19 -236 17 -311
-5z m235 -231 c60 -17 107 -58 132 -113 21 -46 24 -68 24 -187 0 -130 -1 -137
-30 -195 -80 -158 -299 -181 -397 -40 -68 99 -77 308 -18 425 50 98 171 144
289 110z"/>
<path d="M1200 1130 l0 -530 125 0 125 0 0 530 0 530 -125 0 -125 0 0 -530z"/>
<path d="M1530 1638 c5 -13 52 -158 105 -323 53 -165 127 -392 164 -505 l67
-205 174 0 173 0 18 55 c22 67 226 699 280 865 21 67 39 124 39 128 0 4 -56 7
-124 7 l-125 0 -126 -387 c-70 -214 -130 -391 -134 -395 -6 -7 -82 214 -218
635 l-47 147 -128 0 -128 0 10 -22z"/>
<path d="M2630 1130 l0 -530 125 0 125 0 0 530 0 530 -125 0 -125 0 0 -530z"/>
</g>
</svg>
